<svg width="198" height="108" viewBox="0 0 198 108" fill="none" xmlns="http://www.w3.org/2000/svg">
<path d="M1.368 37H4.104V33.652L3.924 25.588L8.892 37H11.736L6.3 24.616L11.736 11.8H8.928L3.888 23.716L4.104 14.824V11.8H1.368V37ZM18.5394 37H21.2754V33.112L24.4434 11.8H21.7794L21.2394 15.04L19.8714 27.46L18.3954 15.04L17.8194 11.8H15.1554L18.5394 33.112V37ZM29.752 37H32.488V11.8H29.752V37ZM41.533 17.056L40.921 11.8H38.257L40.957 37H45.205L47.905 11.8H45.241L44.629 17.02L43.081 33.868L41.533 17.056ZM1.2 67H3.48V46H1.2V67ZM13.6875 64.18L14.2575 67H17.8875V46H15.6075V48.49L15.8775 64.18L12.9675 48.55L12.4575 46H8.8275V67H11.1075V64.27L10.8075 48.7L13.6875 64.18ZM21.3654 48.16H24.7254V67H27.0054V48.16H30.3654V46H21.3654V48.16ZM43.568 65.26C40.628 65.26 38.138 64.18 36.548 62.44L52.718 51.28C50.828 47.89 47.198 45.58 43.028 45.58C36.938 45.58 31.988 50.47 31.988 56.5C31.988 62.53 36.668 67.42 43.568 67.42C47.288 67.42 50.408 65.89 52.568 62.77L50.768 61.45C49.028 64.09 46.538 65.26 43.568 65.26ZM34.268 56.5C34.268 51.67 38.138 47.74 43.028 47.74C45.668 47.74 48.038 48.91 49.628 50.74L35.288 60.61C34.628 59.38 34.268 58 34.268 56.5ZM56.122 67H58.402V60.73L62.482 67H65.122L60.772 60.34C63.352 59.11 65.152 56.56 65.152 53.56C65.152 49.39 61.702 46 57.502 46H56.122V67ZM62.872 53.56C62.872 56.23 60.952 58.51 58.402 58.96V48.22C60.952 48.67 62.872 50.89 62.872 53.56ZM73.9512 64.18L74.5212 67H78.1512V46H75.8712V48.49L76.1412 64.18L73.2312 48.55L72.7212 46H69.0912V67H71.3712V64.27L71.0712 48.7L73.9512 64.18ZM84.3291 46L81.9291 67H84.1491L84.3891 64.78H87.7491L88.0191 67H90.2391L87.8391 46H84.3291ZM87.5091 62.62H84.6591L86.0691 48.52L87.5091 62.62ZM92.5908 48.16H95.9508V67H98.2308V48.16H101.591V46H92.5908V48.16ZM105.729 67H108.009V46H105.729V67ZM112.336 56.5C112.336 62.53 117.286 67.42 123.376 67.42C129.466 67.42 134.416 62.53 134.416 56.5C134.416 50.47 129.466 45.58 123.376 45.58C117.286 45.58 112.336 50.47 112.336 56.5ZM114.616 56.5C114.616 51.67 118.486 47.74 123.376 47.74C128.266 47.74 132.136 51.67 132.136 56.5C132.136 61.33 128.266 65.26 123.376 65.26C118.486 65.26 114.616 61.33 114.616 56.5ZM143.542 64.18L144.112 67H147.742V46H145.462V48.49L145.732 64.18L142.822 48.55L142.312 46H138.682V67H140.962V64.27L140.662 48.7L143.542 64.18ZM154.22 46L151.82 67H154.04L154.28 64.78H157.64L157.91 67H160.13L157.73 46H154.22ZM157.4 62.62H154.55L155.96 48.52L157.4 62.62ZM164.224 67H171.124V64.84H166.504V46H164.224V67ZM1.14 97H3.42V90.91H6.87V88.75H3.42V78.16H8.67V76H1.14V97ZM12.6527 97H14.9327V76H12.6527V97ZM19.6802 97H26.5802V94.84H21.9602V76H19.6802V97ZM38.8842 97L40.7742 78.4L41.7342 94.24L41.9442 97H44.1642L42.7242 76H38.7942L38.2842 80.35L37.1142 94.18L35.9442 80.35L35.4342 76H31.5042L30.0642 97H32.2842L32.4942 94.24L33.4542 78.4L35.3442 97H38.8842ZM59.7513 97H62.0313V90.91H65.4813V88.75H62.0313V78.16H67.2813V76H59.7513V97ZM81.2801 95.26C78.3401 95.26 75.8501 94.18 74.2601 92.44L90.4301 81.28C88.5401 77.89 84.9101 75.58 80.7401 75.58C74.6501 75.58 69.7001 80.47 69.7001 86.5C69.7001 92.53 74.3801 97.42 81.2801 97.42C85.0001 97.42 88.1201 95.89 90.2801 92.77L88.4801 91.45C86.7401 94.09 84.2501 95.26 81.2801 95.26ZM71.9801 86.5C71.9801 81.67 75.8501 77.74 80.7401 77.74C83.3801 77.74 85.7501 78.91 87.3401 80.74L73.0001 90.61C72.3401 89.38 71.9801 88 71.9801 86.5ZM104.874 80.47C104.874 77.77 102.654 75.61 99.8041 75.58C97.0441 75.58 94.7941 77.8 94.7941 80.56C94.7941 83.92 96.9841 85 99.7741 86.41C101.934 87.49 104.094 88.57 104.094 91.15C104.094 93.43 102.324 95.26 100.104 95.26C98.0041 95.26 96.2941 93.61 96.1141 91.51L93.8641 91.75C94.1641 94.93 96.8641 97.42 100.104 97.42C103.554 97.42 106.374 94.63 106.374 91.15C106.374 87.61 104.034 86.05 100.824 84.49C98.9641 83.59 97.0741 82.69 97.0741 80.56C97.0741 79.06 98.1541 77.74 99.8041 77.74C101.514 77.74 102.594 79.12 102.594 80.71L104.874 80.47ZM108.48 78.16H111.84V97H114.12V78.16H117.48V76H108.48V78.16ZM121.618 97H123.898V76H121.618V97ZM131.436 80.38L130.926 76H128.706L130.956 97H134.496L136.746 76H134.526L134.016 80.35L132.726 94.39L131.436 80.38ZM141.774 76L139.374 97H141.594L141.834 94.78H145.194L145.464 97H147.684L145.284 76H141.774ZM144.954 92.62H142.104L143.514 78.52L144.954 92.62ZM152.379 97H159.279V94.84H154.659V76H152.379V97Z" fill="black"/>
<path d="M56.4114 32.9308L60.6364 29.0558L62.0114 27.7308C63.4864 26.2558 64.2364 24.9308 64.2364 22.9558C64.2364 19.5558 61.4364 16.7808 58.0114 16.7808C54.9364 16.7808 52.3864 19.0058 51.8864 21.9558L53.7114 22.2808C54.0364 20.1808 55.8114 18.5808 57.9864 18.5808C60.4114 18.5808 62.3364 20.5558 62.3364 22.9808C62.3364 24.2808 61.8364 25.3308 60.6364 26.4558L53.5614 33.1808V34.6308H63.2114V32.8308H61.8614L56.4114 32.9308ZM67.1253 18.9308H68.8003V34.6308H70.7003V17.1308H67.1253V18.9308ZM74.3284 33.7558C74.3284 34.4308 74.8784 34.9808 75.5534 34.9808C76.2784 34.9808 76.8284 34.4308 76.8284 33.7558C76.8284 33.0308 76.2784 32.4808 75.5534 32.4808C74.8784 32.4808 74.3284 33.0308 74.3284 33.7558ZM82.2858 21.0558C82.2858 19.7558 83.4608 18.6058 84.6858 18.6058C85.9858 18.6058 87.1358 19.7558 87.1358 21.0558V30.7058C87.1358 32.0058 85.9858 33.1558 84.6858 33.1558C83.4608 33.1558 82.2858 32.0058 82.2858 30.7058V21.0558ZM80.3858 30.7058C80.3858 33.0558 82.3358 34.9808 84.6858 34.9808C87.1108 34.9808 89.0358 33.0558 89.0358 30.7058V21.0558C89.0358 18.7058 87.1108 16.7808 84.6858 16.7808C82.3358 16.7808 80.3858 18.7058 80.3858 21.0558V30.7058ZM92.0862 30.8558C93.1362 33.2808 95.5862 34.9808 98.4362 34.9808C102.261 34.9808 105.361 31.9058 105.361 28.1308C105.361 24.3558 102.261 21.2808 98.4362 21.2808C97.4612 21.2808 96.5362 21.4808 95.6862 21.8558L96.3362 18.9308H103.361V17.1308H94.8612L93.5112 23.0058L95.2112 23.9558C96.2112 23.3808 97.1612 23.0808 98.4362 23.0808C101.236 23.0808 103.461 25.3558 103.461 28.1308C103.461 30.9058 101.236 33.1808 98.4362 33.1808C96.3362 33.1808 94.5612 31.9308 93.8112 30.1308L92.0862 30.8558ZM112.406 26.6558V24.8058H108.456V26.6558H112.406ZM119.998 32.9308L124.223 29.0558L125.598 27.7308C127.073 26.2558 127.823 24.9308 127.823 22.9558C127.823 19.5558 125.023 16.7808 121.598 16.7808C118.523 16.7808 115.973 19.0058 115.473 21.9558L117.298 22.2808C117.623 20.1808 119.398 18.5808 121.573 18.5808C123.998 18.5808 125.923 20.5558 125.923 22.9808C125.923 24.2808 125.423 25.3308 124.223 26.4558L117.148 33.1808V34.6308H126.798V32.8308H125.448L119.998 32.9308ZM134.737 17.1308L130.487 31.3308V32.7808H135.737V34.6308H137.637V17.1308H134.737ZM132.512 30.9808L136.062 19.2308L135.737 30.9808H132.512ZM141.26 33.7558C141.26 34.4308 141.81 34.9808 142.485 34.9808C143.21 34.9808 143.76 34.4308 143.76 33.7558C143.76 33.0308 143.21 32.4808 142.485 32.4808C141.81 32.4808 141.26 33.0308 141.26 33.7558ZM149.217 21.0558C149.217 19.7558 150.392 18.6058 151.617 18.6058C152.917 18.6058 154.067 19.7558 154.067 21.0558V30.7058C154.067 32.0058 152.917 33.1558 151.617 33.1558C150.392 33.1558 149.217 32.0058 149.217 30.7058V21.0558ZM147.317 30.7058C147.317 33.0558 149.267 34.9808 151.617 34.9808C154.042 34.9808 155.967 33.0558 155.967 30.7058V21.0558C155.967 18.7058 154.042 16.7808 151.617 16.7808C149.267 16.7808 147.317 18.7058 147.317 21.0558V30.7058ZM159.018 30.8558C160.068 33.2808 162.518 34.9808 165.368 34.9808C169.193 34.9808 172.293 31.9058 172.293 28.1308C172.293 24.3558 169.193 21.2808 165.368 21.2808C164.393 21.2808 163.468 21.4808 162.618 21.8558L163.268 18.9308H170.293V17.1308H161.793L160.443 23.0058L162.143 23.9558C163.143 23.3808 164.093 23.0808 165.368 23.0808C168.168 23.0808 170.393 25.3558 170.393 28.1308C170.393 30.9058 168.168 33.1808 165.368 33.1808C163.268 33.1808 161.493 31.9308 160.743 30.1308L159.018 30.8558Z" fill="#4839A2"/>
</svg>
